<svg width="391" height="70" viewBox="0 0 391 70" fill="none" xmlns="http://www.w3.org/2000/svg">
<rect width="11" height="70" rx="5.5" fill="#F43F5E"/>
<rect x="19" y="8" width="11" height="54" rx="5.5" fill="#F43F5E"/>
<rect x="38" y="18" width="11" height="34" rx="5.5" fill="#F43F5E"/>
<rect x="57" y="10" width="11" height="50" rx="5.5" fill="#F43F5E"/>
<rect x="76" y="3" width="11" height="64" rx="5.5" fill="#F43F5E"/>
<rect x="95" y="10" width="11" height="50" rx="5.5" fill="#F43F5E"/>
<rect x="114" y="10" width="11" height="50" rx="5.5" fill="#F43F5E"/>
<rect x="133" y="13" width="11" height="44" rx="5.5" fill="#F43F5E"/>
<rect x="152" y="8" width="11" height="54" rx="5.5" fill="#F43F5E"/>
<rect x="171" y="2" width="11" height="66" rx="5.5" fill="#F43F5E"/>
<rect x="190" y="5" width="11" height="60" rx="5.5" fill="#F43F5E"/>
<rect x="209" y="13" width="11" height="44" rx="5.5" fill="#F43F5E"/>
<rect x="228" y="10" width="11" height="50" rx="5.5" fill="#F43F5E"/>
<rect x="247" y="2" width="11" height="66" rx="5.5" fill="#F43F5E"/>
<rect x="266" y="8" width="11" height="54" rx="5.5" fill="#F43F5E"/>
<rect x="285" y="5" width="11" height="60" rx="5.5" fill="#F43F5E"/>
<rect x="304" width="11" height="70" rx="5.5" fill="#F43F5E"/>
<rect x="323" y="8" width="11" height="54" rx="5.5" fill="#F43F5E"/>
<rect x="342" y="8" width="11" height="54" rx="5.5" fill="#F43F5E"/>
<rect x="361" y="5" width="11" height="60" rx="5.5" fill="#F43F5E"/>
<rect x="380" width="11" height="70" rx="5.5" fill="#F43F5E"/>
</svg>
